<svg width="21" height="21" viewBox="0 0 21 21" fill="none" xmlns="http://www.w3.org/2000/svg">
<g id="at-sign" clip-path="url(#clip0_3_55)">
<path id="Vector" d="M10.5 14C12.433 14 14 12.433 14 10.5C14 8.567 12.433 7 10.5 7C8.567 7 7 8.567 7 10.5C7 12.433 8.567 14 10.5 14Z" stroke="white" stroke-width="2" stroke-linecap="round" stroke-linejoin="round"/>
<path id="Vector_2" d="M14 6.99994V11.3749C14 12.0711 14.2766 12.7388 14.7689 13.2311C15.2611 13.7234 15.9288 13.9999 16.625 13.9999C17.3212 13.9999 17.9889 13.7234 18.4812 13.2311C18.9734 12.7388 19.25 12.0711 19.25 11.3749V10.4999C19.2499 8.5251 18.5817 6.60836 17.3541 5.06141C16.1265 3.51446 14.4117 2.42827 12.4886 1.97946C10.5654 1.53064 8.54695 1.74561 6.76144 2.58939C4.97592 3.43318 3.52836 4.85616 2.65411 6.62695C1.77986 8.39775 1.53035 10.4122 1.94616 12.3428C2.36196 14.2734 3.41861 16.0065 4.94431 17.2604C6.47001 18.5143 8.37501 19.2152 10.3496 19.2492C12.3241 19.2832 14.2521 18.6482 15.82 17.4474" stroke="white" stroke-width="2" stroke-linecap="round" stroke-linejoin="round"/>
</g>
<defs>
<clipPath id="clip0_3_55">
<rect width="21" height="21" fill="white"/>
</clipPath>
</defs>
</svg>
